# xmcd
#
# Track frame offsets:
# 150
# 23230
# 45463
# 65949
# 87891
# 110971
# 133204
# 153690
# 175632
# 199352
# 219391
# 230690
# 250216
# 272469
#
# Disc length: 3906 seconds
#
# Revision: 0
# Processed by: cddbd v1.5.2PL0 Copyright (c) Steve Scherf et al.
# Submitted via: Audion 3.0.2 (http://www.panic.com/audion/)
#
DISCID=d20f400e
DTITLE=edith - zouk retro 1
DYEAR=1900
DGENRE=
TTITLE0=ecoute 
TTITLE1=we
TTITLE2=sdwsd
TTITLE3=sq
TTITLE4=hh
TTITLE5=b bhcvg
TTITLE6=hhbi
TTITLE7=iu
TTITLE8=kj
TTITLE9=kj
TTITLE10=ou
TTITLE11=oo
TTITLE12=jdjvdhie
TTITLE13=kfgikertj
EXTD=
EXTT0=
EXTT1=
EXTT2=
EXTT3=
EXTT4=
EXTT5=
EXTT6=
EXTT7=
EXTT8=
EXTT9=
EXTT10=
EXTT11=
EXTT12=
EXTT13=
PLAYORDER=
